<mxfile host="app.diagrams.net" agent="Mozilla/5.0 (X11; Linux x86_64) AppleWebKit/537.36 (KHTML, like Gecko) Chrome/139.0.0.0 Safari/537.36" version="28.1.0">
  <diagram name="Page-1" id="DpO9iMzfWjLum_n4VByZ">
    <mxGraphModel dx="2852" dy="1662" grid="1" gridSize="10" guides="1" tooltips="1" connect="1" arrows="1" fold="1" page="1" pageScale="1" pageWidth="827" pageHeight="1169" background="#ffffff" math="0" shadow="0">
      <root>
        <mxCell id="0" />
        <mxCell id="1" parent="0" />
        <mxCell id="BMqC1tdzXRaq2WfvHlOq-24" style="rounded=0;orthogonalLoop=1;jettySize=auto;html=1;exitX=1;exitY=0.3333333333333333;exitDx=0;exitDy=0;exitPerimeter=0;entryX=0;entryY=0.5;entryDx=0;entryDy=0;" edge="1" parent="1" source="LSAs5oSdMveP9yP4Xt4q-1" target="LSAs5oSdMveP9yP4Xt4q-14">
          <mxGeometry relative="1" as="geometry">
            <mxPoint x="670" y="264" as="targetPoint" />
          </mxGeometry>
        </mxCell>
        <mxCell id="BMqC1tdzXRaq2WfvHlOq-27" style="edgeStyle=none;shape=connector;rounded=0;orthogonalLoop=1;jettySize=auto;html=1;exitX=1;exitY=0.3333333333333333;exitDx=0;exitDy=0;exitPerimeter=0;entryX=0;entryY=0;entryDx=0;entryDy=0;strokeColor=default;align=center;verticalAlign=middle;fontFamily=Helvetica;fontSize=11;fontColor=default;labelBackgroundColor=default;endArrow=classic;" edge="1" parent="1" source="LSAs5oSdMveP9yP4Xt4q-1" target="BMqC1tdzXRaq2WfvHlOq-14">
          <mxGeometry relative="1" as="geometry" />
        </mxCell>
        <mxCell id="BMqC1tdzXRaq2WfvHlOq-28" style="edgeStyle=none;shape=connector;rounded=0;orthogonalLoop=1;jettySize=auto;html=1;exitX=1;exitY=0.3333333333333333;exitDx=0;exitDy=0;exitPerimeter=0;entryX=0;entryY=0;entryDx=0;entryDy=0;strokeColor=default;align=center;verticalAlign=middle;fontFamily=Helvetica;fontSize=11;fontColor=default;labelBackgroundColor=default;endArrow=classic;" edge="1" parent="1" source="LSAs5oSdMveP9yP4Xt4q-1" target="BMqC1tdzXRaq2WfvHlOq-15">
          <mxGeometry relative="1" as="geometry" />
        </mxCell>
        <mxCell id="BMqC1tdzXRaq2WfvHlOq-30" style="edgeStyle=none;shape=connector;rounded=0;orthogonalLoop=1;jettySize=auto;html=1;exitX=1;exitY=0.3333333333333333;exitDx=0;exitDy=0;exitPerimeter=0;strokeColor=default;align=center;verticalAlign=middle;fontFamily=Helvetica;fontSize=11;fontColor=default;labelBackgroundColor=default;endArrow=classic;" edge="1" parent="1" source="LSAs5oSdMveP9yP4Xt4q-1">
          <mxGeometry relative="1" as="geometry">
            <mxPoint x="660" y="1114" as="targetPoint" />
          </mxGeometry>
        </mxCell>
        <mxCell id="BMqC1tdzXRaq2WfvHlOq-81" style="edgeStyle=none;shape=connector;rounded=0;orthogonalLoop=1;jettySize=auto;html=1;exitX=1;exitY=0.3333333333333333;exitDx=0;exitDy=0;exitPerimeter=0;entryX=0;entryY=0.5;entryDx=0;entryDy=0;strokeColor=default;align=center;verticalAlign=middle;fontFamily=Helvetica;fontSize=11;fontColor=default;labelBackgroundColor=default;endArrow=classic;" edge="1" parent="1" source="LSAs5oSdMveP9yP4Xt4q-1" target="BMqC1tdzXRaq2WfvHlOq-78">
          <mxGeometry relative="1" as="geometry" />
        </mxCell>
        <mxCell id="BMqC1tdzXRaq2WfvHlOq-97" style="edgeStyle=none;shape=connector;rounded=0;orthogonalLoop=1;jettySize=auto;html=1;exitX=1;exitY=0.3333333333333333;exitDx=0;exitDy=0;exitPerimeter=0;entryX=0;entryY=0;entryDx=0;entryDy=0;strokeColor=default;align=center;verticalAlign=middle;fontFamily=Helvetica;fontSize=11;fontColor=default;labelBackgroundColor=default;endArrow=classic;" edge="1" parent="1" source="LSAs5oSdMveP9yP4Xt4q-1" target="BMqC1tdzXRaq2WfvHlOq-96">
          <mxGeometry relative="1" as="geometry" />
        </mxCell>
        <mxCell id="LSAs5oSdMveP9yP4Xt4q-1" value="Army" style="shape=umlActor;verticalLabelPosition=bottom;verticalAlign=top;html=1;outlineConnect=0;rounded=1;" parent="1" vertex="1">
          <mxGeometry x="330" y="324" width="30" height="60" as="geometry" />
        </mxCell>
        <mxCell id="BMqC1tdzXRaq2WfvHlOq-31" style="edgeStyle=none;shape=connector;rounded=0;orthogonalLoop=1;jettySize=auto;html=1;exitX=1;exitY=0.3333333333333333;exitDx=0;exitDy=0;exitPerimeter=0;entryX=0;entryY=1;entryDx=0;entryDy=0;strokeColor=default;align=center;verticalAlign=middle;fontFamily=Helvetica;fontSize=11;fontColor=default;labelBackgroundColor=default;endArrow=classic;" edge="1" parent="1" source="LSAs5oSdMveP9yP4Xt4q-4" target="LSAs5oSdMveP9yP4Xt4q-14">
          <mxGeometry relative="1" as="geometry" />
        </mxCell>
        <mxCell id="BMqC1tdzXRaq2WfvHlOq-32" style="edgeStyle=none;shape=connector;rounded=0;orthogonalLoop=1;jettySize=auto;html=1;exitX=1;exitY=0.3333333333333333;exitDx=0;exitDy=0;exitPerimeter=0;entryX=0;entryY=0;entryDx=0;entryDy=0;strokeColor=default;align=center;verticalAlign=middle;fontFamily=Helvetica;fontSize=11;fontColor=default;labelBackgroundColor=default;endArrow=classic;" edge="1" parent="1" source="LSAs5oSdMveP9yP4Xt4q-4" target="BMqC1tdzXRaq2WfvHlOq-12">
          <mxGeometry relative="1" as="geometry" />
        </mxCell>
        <mxCell id="BMqC1tdzXRaq2WfvHlOq-33" style="edgeStyle=none;shape=connector;rounded=0;orthogonalLoop=1;jettySize=auto;html=1;exitX=1;exitY=0.3333333333333333;exitDx=0;exitDy=0;exitPerimeter=0;entryX=0;entryY=0;entryDx=0;entryDy=0;strokeColor=default;align=center;verticalAlign=middle;fontFamily=Helvetica;fontSize=11;fontColor=default;labelBackgroundColor=default;endArrow=classic;" edge="1" parent="1" source="LSAs5oSdMveP9yP4Xt4q-4" target="BMqC1tdzXRaq2WfvHlOq-14">
          <mxGeometry relative="1" as="geometry" />
        </mxCell>
        <mxCell id="BMqC1tdzXRaq2WfvHlOq-34" style="edgeStyle=none;shape=connector;rounded=0;orthogonalLoop=1;jettySize=auto;html=1;exitX=1;exitY=0.3333333333333333;exitDx=0;exitDy=0;exitPerimeter=0;entryX=0;entryY=0;entryDx=0;entryDy=0;strokeColor=default;align=center;verticalAlign=middle;fontFamily=Helvetica;fontSize=11;fontColor=default;labelBackgroundColor=default;endArrow=classic;" edge="1" parent="1" source="LSAs5oSdMveP9yP4Xt4q-4" target="BMqC1tdzXRaq2WfvHlOq-15">
          <mxGeometry relative="1" as="geometry" />
        </mxCell>
        <mxCell id="BMqC1tdzXRaq2WfvHlOq-35" style="edgeStyle=none;shape=connector;rounded=0;orthogonalLoop=1;jettySize=auto;html=1;exitX=1;exitY=0.3333333333333333;exitDx=0;exitDy=0;exitPerimeter=0;entryX=0;entryY=0;entryDx=0;entryDy=0;strokeColor=default;align=center;verticalAlign=middle;fontFamily=Helvetica;fontSize=11;fontColor=default;labelBackgroundColor=default;endArrow=classic;" edge="1" parent="1" source="LSAs5oSdMveP9yP4Xt4q-4" target="BMqC1tdzXRaq2WfvHlOq-16">
          <mxGeometry relative="1" as="geometry" />
        </mxCell>
        <mxCell id="BMqC1tdzXRaq2WfvHlOq-37" style="edgeStyle=none;shape=connector;rounded=0;orthogonalLoop=1;jettySize=auto;html=1;exitX=1;exitY=0.3333333333333333;exitDx=0;exitDy=0;exitPerimeter=0;entryX=0;entryY=0.5;entryDx=0;entryDy=0;strokeColor=default;align=center;verticalAlign=middle;fontFamily=Helvetica;fontSize=11;fontColor=default;labelBackgroundColor=default;endArrow=classic;" edge="1" parent="1" source="LSAs5oSdMveP9yP4Xt4q-4" target="BMqC1tdzXRaq2WfvHlOq-20">
          <mxGeometry relative="1" as="geometry" />
        </mxCell>
        <mxCell id="BMqC1tdzXRaq2WfvHlOq-82" style="edgeStyle=none;shape=connector;rounded=0;orthogonalLoop=1;jettySize=auto;html=1;exitX=1;exitY=0.3333333333333333;exitDx=0;exitDy=0;exitPerimeter=0;entryX=0;entryY=1;entryDx=0;entryDy=0;strokeColor=default;align=center;verticalAlign=middle;fontFamily=Helvetica;fontSize=11;fontColor=default;labelBackgroundColor=default;endArrow=classic;" edge="1" parent="1" source="LSAs5oSdMveP9yP4Xt4q-4" target="BMqC1tdzXRaq2WfvHlOq-78">
          <mxGeometry relative="1" as="geometry" />
        </mxCell>
        <mxCell id="BMqC1tdzXRaq2WfvHlOq-98" style="edgeStyle=none;shape=connector;rounded=0;orthogonalLoop=1;jettySize=auto;html=1;exitX=1;exitY=0.3333333333333333;exitDx=0;exitDy=0;exitPerimeter=0;entryX=0;entryY=0;entryDx=0;entryDy=0;strokeColor=default;align=center;verticalAlign=middle;fontFamily=Helvetica;fontSize=11;fontColor=default;labelBackgroundColor=default;endArrow=classic;" edge="1" parent="1" source="LSAs5oSdMveP9yP4Xt4q-4" target="BMqC1tdzXRaq2WfvHlOq-96">
          <mxGeometry relative="1" as="geometry" />
        </mxCell>
        <mxCell id="LSAs5oSdMveP9yP4Xt4q-4" value="Navy" style="shape=umlActor;verticalLabelPosition=bottom;verticalAlign=top;html=1;outlineConnect=0;rounded=1;" parent="1" vertex="1">
          <mxGeometry x="330" y="524" width="30" height="60" as="geometry" />
        </mxCell>
        <mxCell id="BMqC1tdzXRaq2WfvHlOq-38" style="edgeStyle=none;shape=connector;rounded=0;orthogonalLoop=1;jettySize=auto;html=1;exitX=1;exitY=0.3333333333333333;exitDx=0;exitDy=0;exitPerimeter=0;entryX=0;entryY=0.5;entryDx=0;entryDy=0;strokeColor=default;align=center;verticalAlign=middle;fontFamily=Helvetica;fontSize=11;fontColor=default;labelBackgroundColor=default;endArrow=classic;" edge="1" parent="1" source="LSAs5oSdMveP9yP4Xt4q-8" target="LSAs5oSdMveP9yP4Xt4q-14">
          <mxGeometry relative="1" as="geometry" />
        </mxCell>
        <mxCell id="BMqC1tdzXRaq2WfvHlOq-39" style="edgeStyle=none;shape=connector;rounded=0;orthogonalLoop=1;jettySize=auto;html=1;exitX=1;exitY=0.3333333333333333;exitDx=0;exitDy=0;exitPerimeter=0;entryX=0;entryY=0.5;entryDx=0;entryDy=0;strokeColor=default;align=center;verticalAlign=middle;fontFamily=Helvetica;fontSize=11;fontColor=default;labelBackgroundColor=default;endArrow=classic;" edge="1" parent="1" source="LSAs5oSdMveP9yP4Xt4q-8" target="BMqC1tdzXRaq2WfvHlOq-12">
          <mxGeometry relative="1" as="geometry" />
        </mxCell>
        <mxCell id="BMqC1tdzXRaq2WfvHlOq-40" style="edgeStyle=none;shape=connector;rounded=0;orthogonalLoop=1;jettySize=auto;html=1;exitX=1;exitY=0.3333333333333333;exitDx=0;exitDy=0;exitPerimeter=0;entryX=0;entryY=0.5;entryDx=0;entryDy=0;strokeColor=default;align=center;verticalAlign=middle;fontFamily=Helvetica;fontSize=11;fontColor=default;labelBackgroundColor=default;endArrow=classic;" edge="1" parent="1" source="LSAs5oSdMveP9yP4Xt4q-8" target="BMqC1tdzXRaq2WfvHlOq-14">
          <mxGeometry relative="1" as="geometry" />
        </mxCell>
        <mxCell id="BMqC1tdzXRaq2WfvHlOq-41" style="edgeStyle=none;shape=connector;rounded=0;orthogonalLoop=1;jettySize=auto;html=1;exitX=1;exitY=0.3333333333333333;exitDx=0;exitDy=0;exitPerimeter=0;entryX=0;entryY=0.5;entryDx=0;entryDy=0;strokeColor=default;align=center;verticalAlign=middle;fontFamily=Helvetica;fontSize=11;fontColor=default;labelBackgroundColor=default;endArrow=classic;" edge="1" parent="1" source="LSAs5oSdMveP9yP4Xt4q-8" target="BMqC1tdzXRaq2WfvHlOq-15">
          <mxGeometry relative="1" as="geometry" />
        </mxCell>
        <mxCell id="BMqC1tdzXRaq2WfvHlOq-42" style="edgeStyle=none;shape=connector;rounded=0;orthogonalLoop=1;jettySize=auto;html=1;exitX=1;exitY=0.3333333333333333;exitDx=0;exitDy=0;exitPerimeter=0;entryX=0;entryY=0.5;entryDx=0;entryDy=0;strokeColor=default;align=center;verticalAlign=middle;fontFamily=Helvetica;fontSize=11;fontColor=default;labelBackgroundColor=default;endArrow=classic;" edge="1" parent="1" source="LSAs5oSdMveP9yP4Xt4q-8" target="BMqC1tdzXRaq2WfvHlOq-16">
          <mxGeometry relative="1" as="geometry" />
        </mxCell>
        <mxCell id="BMqC1tdzXRaq2WfvHlOq-43" style="edgeStyle=none;shape=connector;rounded=0;orthogonalLoop=1;jettySize=auto;html=1;exitX=1;exitY=0.3333333333333333;exitDx=0;exitDy=0;exitPerimeter=0;entryX=0;entryY=0.5;entryDx=0;entryDy=0;strokeColor=default;align=center;verticalAlign=middle;fontFamily=Helvetica;fontSize=11;fontColor=default;labelBackgroundColor=default;endArrow=classic;" edge="1" parent="1" source="LSAs5oSdMveP9yP4Xt4q-8" target="BMqC1tdzXRaq2WfvHlOq-20">
          <mxGeometry relative="1" as="geometry" />
        </mxCell>
        <mxCell id="BMqC1tdzXRaq2WfvHlOq-83" style="edgeStyle=none;shape=connector;rounded=0;orthogonalLoop=1;jettySize=auto;html=1;exitX=1;exitY=0.3333333333333333;exitDx=0;exitDy=0;exitPerimeter=0;entryX=0;entryY=0.5;entryDx=0;entryDy=0;strokeColor=default;align=center;verticalAlign=middle;fontFamily=Helvetica;fontSize=11;fontColor=default;labelBackgroundColor=default;endArrow=classic;" edge="1" parent="1" source="LSAs5oSdMveP9yP4Xt4q-8" target="BMqC1tdzXRaq2WfvHlOq-78">
          <mxGeometry relative="1" as="geometry" />
        </mxCell>
        <mxCell id="BMqC1tdzXRaq2WfvHlOq-99" style="edgeStyle=none;shape=connector;rounded=0;orthogonalLoop=1;jettySize=auto;html=1;exitX=1;exitY=0.3333333333333333;exitDx=0;exitDy=0;exitPerimeter=0;strokeColor=default;align=center;verticalAlign=middle;fontFamily=Helvetica;fontSize=11;fontColor=default;labelBackgroundColor=default;endArrow=classic;entryX=0;entryY=0.5;entryDx=0;entryDy=0;" edge="1" parent="1" source="LSAs5oSdMveP9yP4Xt4q-8" target="BMqC1tdzXRaq2WfvHlOq-96">
          <mxGeometry relative="1" as="geometry">
            <mxPoint x="540" y="1344" as="targetPoint" />
          </mxGeometry>
        </mxCell>
        <mxCell id="LSAs5oSdMveP9yP4Xt4q-8" value="Air Force" style="shape=umlActor;verticalLabelPosition=bottom;verticalAlign=top;html=1;outlineConnect=0;rounded=1;" parent="1" vertex="1">
          <mxGeometry x="330" y="728" width="30" height="60" as="geometry" />
        </mxCell>
        <mxCell id="BMqC1tdzXRaq2WfvHlOq-57" style="edgeStyle=none;shape=connector;rounded=0;orthogonalLoop=1;jettySize=auto;html=1;exitX=0;exitY=0.3333333333333333;exitDx=0;exitDy=0;exitPerimeter=0;entryX=1;entryY=0.5;entryDx=0;entryDy=0;strokeColor=default;align=center;verticalAlign=middle;fontFamily=Helvetica;fontSize=11;fontColor=default;labelBackgroundColor=default;endArrow=classic;" edge="1" parent="1" source="LSAs5oSdMveP9yP4Xt4q-10" target="LSAs5oSdMveP9yP4Xt4q-14">
          <mxGeometry relative="1" as="geometry" />
        </mxCell>
        <mxCell id="BMqC1tdzXRaq2WfvHlOq-60" style="edgeStyle=none;shape=connector;rounded=0;orthogonalLoop=1;jettySize=auto;html=1;exitX=0;exitY=0.3333333333333333;exitDx=0;exitDy=0;exitPerimeter=0;entryX=1;entryY=0.5;entryDx=0;entryDy=0;strokeColor=default;align=center;verticalAlign=middle;fontFamily=Helvetica;fontSize=11;fontColor=default;labelBackgroundColor=default;endArrow=classic;" edge="1" parent="1" source="LSAs5oSdMveP9yP4Xt4q-10" target="BMqC1tdzXRaq2WfvHlOq-14">
          <mxGeometry relative="1" as="geometry" />
        </mxCell>
        <mxCell id="BMqC1tdzXRaq2WfvHlOq-62" style="edgeStyle=none;shape=connector;rounded=0;orthogonalLoop=1;jettySize=auto;html=1;exitX=0;exitY=0.3333333333333333;exitDx=0;exitDy=0;exitPerimeter=0;entryX=1;entryY=0;entryDx=0;entryDy=0;strokeColor=default;align=center;verticalAlign=middle;fontFamily=Helvetica;fontSize=11;fontColor=default;labelBackgroundColor=default;endArrow=classic;" edge="1" parent="1" source="LSAs5oSdMveP9yP4Xt4q-10" target="BMqC1tdzXRaq2WfvHlOq-18">
          <mxGeometry relative="1" as="geometry" />
        </mxCell>
        <mxCell id="BMqC1tdzXRaq2WfvHlOq-86" style="edgeStyle=none;shape=connector;rounded=0;orthogonalLoop=1;jettySize=auto;html=1;exitX=0;exitY=0.3333333333333333;exitDx=0;exitDy=0;exitPerimeter=0;entryX=1;entryY=0.5;entryDx=0;entryDy=0;strokeColor=default;align=center;verticalAlign=middle;fontFamily=Helvetica;fontSize=11;fontColor=default;labelBackgroundColor=default;endArrow=classic;" edge="1" parent="1" source="LSAs5oSdMveP9yP4Xt4q-10" target="BMqC1tdzXRaq2WfvHlOq-78">
          <mxGeometry relative="1" as="geometry" />
        </mxCell>
        <mxCell id="LSAs5oSdMveP9yP4Xt4q-10" value="President&#39;s Advisor" style="shape=umlActor;verticalLabelPosition=bottom;verticalAlign=top;html=1;outlineConnect=0;rounded=1;" parent="1" vertex="1">
          <mxGeometry x="1290" y="524" width="30" height="60" as="geometry" />
        </mxCell>
        <mxCell id="LSAs5oSdMveP9yP4Xt4q-14" value="Log In" style="ellipse;whiteSpace=wrap;html=1;rounded=1;" parent="1" vertex="1">
          <mxGeometry x="660" y="220" width="130" height="104" as="geometry" />
        </mxCell>
        <mxCell id="BMqC1tdzXRaq2WfvHlOq-50" style="edgeStyle=none;shape=connector;rounded=0;orthogonalLoop=1;jettySize=auto;html=1;exitX=0;exitY=0.3333333333333333;exitDx=0;exitDy=0;exitPerimeter=0;entryX=1;entryY=0;entryDx=0;entryDy=0;strokeColor=default;align=center;verticalAlign=middle;fontFamily=Helvetica;fontSize=11;fontColor=default;labelBackgroundColor=default;endArrow=classic;" edge="1" parent="1" source="m6IIViM59i8U2YxwG6Qa-5" target="BMqC1tdzXRaq2WfvHlOq-14">
          <mxGeometry relative="1" as="geometry" />
        </mxCell>
        <mxCell id="BMqC1tdzXRaq2WfvHlOq-51" style="edgeStyle=none;shape=connector;rounded=0;orthogonalLoop=1;jettySize=auto;html=1;exitX=0;exitY=0.3333333333333333;exitDx=0;exitDy=0;exitPerimeter=0;strokeColor=default;align=center;verticalAlign=middle;fontFamily=Helvetica;fontSize=11;fontColor=default;labelBackgroundColor=default;endArrow=classic;entryX=1;entryY=0;entryDx=0;entryDy=0;" edge="1" parent="1" source="m6IIViM59i8U2YxwG6Qa-5" target="BMqC1tdzXRaq2WfvHlOq-15">
          <mxGeometry relative="1" as="geometry" />
        </mxCell>
        <mxCell id="BMqC1tdzXRaq2WfvHlOq-52" style="edgeStyle=none;shape=connector;rounded=0;orthogonalLoop=1;jettySize=auto;html=1;exitX=0;exitY=0.3333333333333333;exitDx=0;exitDy=0;exitPerimeter=0;entryX=1;entryY=0;entryDx=0;entryDy=0;strokeColor=default;align=center;verticalAlign=middle;fontFamily=Helvetica;fontSize=11;fontColor=default;labelBackgroundColor=default;endArrow=classic;" edge="1" parent="1" source="m6IIViM59i8U2YxwG6Qa-5" target="BMqC1tdzXRaq2WfvHlOq-17">
          <mxGeometry relative="1" as="geometry" />
        </mxCell>
        <mxCell id="BMqC1tdzXRaq2WfvHlOq-53" style="edgeStyle=none;shape=connector;rounded=0;orthogonalLoop=1;jettySize=auto;html=1;exitX=0;exitY=0.3333333333333333;exitDx=0;exitDy=0;exitPerimeter=0;entryX=1;entryY=0;entryDx=0;entryDy=0;strokeColor=default;align=center;verticalAlign=middle;fontFamily=Helvetica;fontSize=11;fontColor=default;labelBackgroundColor=default;endArrow=classic;" edge="1" parent="1" source="m6IIViM59i8U2YxwG6Qa-5" target="BMqC1tdzXRaq2WfvHlOq-18">
          <mxGeometry relative="1" as="geometry" />
        </mxCell>
        <mxCell id="BMqC1tdzXRaq2WfvHlOq-54" style="edgeStyle=none;shape=connector;rounded=0;orthogonalLoop=1;jettySize=auto;html=1;exitX=0;exitY=0.3333333333333333;exitDx=0;exitDy=0;exitPerimeter=0;entryX=1;entryY=0.5;entryDx=0;entryDy=0;strokeColor=default;align=center;verticalAlign=middle;fontFamily=Helvetica;fontSize=11;fontColor=default;labelBackgroundColor=default;endArrow=classic;" edge="1" parent="1" source="m6IIViM59i8U2YxwG6Qa-5" target="LSAs5oSdMveP9yP4Xt4q-14">
          <mxGeometry relative="1" as="geometry" />
        </mxCell>
        <mxCell id="BMqC1tdzXRaq2WfvHlOq-85" style="edgeStyle=none;shape=connector;rounded=0;orthogonalLoop=1;jettySize=auto;html=1;exitX=0;exitY=0.3333333333333333;exitDx=0;exitDy=0;exitPerimeter=0;strokeColor=default;align=center;verticalAlign=middle;fontFamily=Helvetica;fontSize=11;fontColor=default;labelBackgroundColor=default;endArrow=classic;entryX=1;entryY=0.5;entryDx=0;entryDy=0;" edge="1" parent="1" source="m6IIViM59i8U2YxwG6Qa-5" target="BMqC1tdzXRaq2WfvHlOq-78">
          <mxGeometry relative="1" as="geometry" />
        </mxCell>
        <mxCell id="BMqC1tdzXRaq2WfvHlOq-101" style="edgeStyle=none;shape=connector;rounded=0;orthogonalLoop=1;jettySize=auto;html=1;exitX=0;exitY=0.3333333333333333;exitDx=0;exitDy=0;exitPerimeter=0;entryX=1;entryY=0;entryDx=0;entryDy=0;strokeColor=default;align=center;verticalAlign=middle;fontFamily=Helvetica;fontSize=11;fontColor=default;labelBackgroundColor=default;endArrow=classic;" edge="1" parent="1" source="m6IIViM59i8U2YxwG6Qa-5" target="BMqC1tdzXRaq2WfvHlOq-96">
          <mxGeometry relative="1" as="geometry" />
        </mxCell>
        <mxCell id="m6IIViM59i8U2YxwG6Qa-5" value="Ministry of Defense" style="shape=umlActor;verticalLabelPosition=bottom;verticalAlign=top;html=1;outlineConnect=0;rounded=1;" parent="1" vertex="1">
          <mxGeometry x="1280" y="324" width="30" height="60" as="geometry" />
        </mxCell>
        <mxCell id="BMqC1tdzXRaq2WfvHlOq-64" style="edgeStyle=none;shape=connector;rounded=0;orthogonalLoop=1;jettySize=auto;html=1;exitX=0;exitY=0.3333333333333333;exitDx=0;exitDy=0;exitPerimeter=0;entryX=1;entryY=0;entryDx=0;entryDy=0;strokeColor=default;align=center;verticalAlign=middle;fontFamily=Helvetica;fontSize=11;fontColor=default;labelBackgroundColor=default;endArrow=classic;" edge="1" parent="1" source="LSAs5oSdMveP9yP4Xt4q-9" target="BMqC1tdzXRaq2WfvHlOq-17">
          <mxGeometry relative="1" as="geometry" />
        </mxCell>
        <mxCell id="BMqC1tdzXRaq2WfvHlOq-65" style="edgeStyle=none;shape=connector;rounded=0;orthogonalLoop=1;jettySize=auto;html=1;exitX=0;exitY=0.3333333333333333;exitDx=0;exitDy=0;exitPerimeter=0;entryX=1;entryY=0.5;entryDx=0;entryDy=0;strokeColor=default;align=center;verticalAlign=middle;fontFamily=Helvetica;fontSize=11;fontColor=default;labelBackgroundColor=default;endArrow=classic;" edge="1" parent="1" source="LSAs5oSdMveP9yP4Xt4q-9" target="BMqC1tdzXRaq2WfvHlOq-16">
          <mxGeometry relative="1" as="geometry" />
        </mxCell>
        <mxCell id="LSAs5oSdMveP9yP4Xt4q-9" value="External Agencies" style="shape=umlActor;verticalLabelPosition=bottom;verticalAlign=top;html=1;outlineConnect=0;rounded=1;movable=1;resizable=1;rotatable=1;deletable=1;editable=1;locked=0;connectable=1;" parent="1" vertex="1">
          <mxGeometry x="1280" y="728" width="30" height="60" as="geometry" />
        </mxCell>
        <mxCell id="BMqC1tdzXRaq2WfvHlOq-44" style="edgeStyle=none;shape=connector;rounded=0;orthogonalLoop=1;jettySize=auto;html=1;exitX=1;exitY=0.3333333333333333;exitDx=0;exitDy=0;exitPerimeter=0;entryX=0;entryY=0.5;entryDx=0;entryDy=0;strokeColor=default;align=center;verticalAlign=middle;fontFamily=Helvetica;fontSize=11;fontColor=default;labelBackgroundColor=default;endArrow=classic;" edge="1" parent="1" source="BMqC1tdzXRaq2WfvHlOq-5" target="BMqC1tdzXRaq2WfvHlOq-12">
          <mxGeometry relative="1" as="geometry" />
        </mxCell>
        <mxCell id="BMqC1tdzXRaq2WfvHlOq-46" style="edgeStyle=none;shape=connector;rounded=0;orthogonalLoop=1;jettySize=auto;html=1;exitX=1;exitY=0.3333333333333333;exitDx=0;exitDy=0;exitPerimeter=0;entryX=0;entryY=0.5;entryDx=0;entryDy=0;strokeColor=default;align=center;verticalAlign=middle;fontFamily=Helvetica;fontSize=11;fontColor=default;labelBackgroundColor=default;endArrow=classic;" edge="1" parent="1" source="BMqC1tdzXRaq2WfvHlOq-5" target="BMqC1tdzXRaq2WfvHlOq-18">
          <mxGeometry relative="1" as="geometry" />
        </mxCell>
        <mxCell id="BMqC1tdzXRaq2WfvHlOq-55" style="edgeStyle=none;shape=connector;rounded=0;orthogonalLoop=1;jettySize=auto;html=1;exitX=1;exitY=0.3333333333333333;exitDx=0;exitDy=0;exitPerimeter=0;entryX=0;entryY=1;entryDx=0;entryDy=0;strokeColor=default;align=center;verticalAlign=middle;fontFamily=Helvetica;fontSize=11;fontColor=default;labelBackgroundColor=default;endArrow=classic;" edge="1" parent="1" source="BMqC1tdzXRaq2WfvHlOq-5" target="LSAs5oSdMveP9yP4Xt4q-14">
          <mxGeometry relative="1" as="geometry" />
        </mxCell>
        <mxCell id="BMqC1tdzXRaq2WfvHlOq-84" style="edgeStyle=none;shape=connector;rounded=0;orthogonalLoop=1;jettySize=auto;html=1;exitX=1;exitY=0.3333333333333333;exitDx=0;exitDy=0;exitPerimeter=0;entryX=0;entryY=1;entryDx=0;entryDy=0;strokeColor=default;align=center;verticalAlign=middle;fontFamily=Helvetica;fontSize=11;fontColor=default;labelBackgroundColor=default;endArrow=classic;" edge="1" parent="1" source="BMqC1tdzXRaq2WfvHlOq-5" target="BMqC1tdzXRaq2WfvHlOq-78">
          <mxGeometry relative="1" as="geometry" />
        </mxCell>
        <mxCell id="BMqC1tdzXRaq2WfvHlOq-100" style="edgeStyle=none;shape=connector;rounded=0;orthogonalLoop=1;jettySize=auto;html=1;exitX=1;exitY=0.3333333333333333;exitDx=0;exitDy=0;exitPerimeter=0;entryX=0;entryY=0.5;entryDx=0;entryDy=0;strokeColor=default;align=center;verticalAlign=middle;fontFamily=Helvetica;fontSize=11;fontColor=default;labelBackgroundColor=default;endArrow=classic;" edge="1" parent="1" source="BMqC1tdzXRaq2WfvHlOq-5" target="BMqC1tdzXRaq2WfvHlOq-96">
          <mxGeometry relative="1" as="geometry" />
        </mxCell>
        <mxCell id="BMqC1tdzXRaq2WfvHlOq-5" value="Intelligence Analyst" style="shape=umlActor;verticalLabelPosition=bottom;verticalAlign=top;html=1;outlineConnect=0;rounded=1;" vertex="1" parent="1">
          <mxGeometry x="330" y="921" width="30" height="60" as="geometry" />
        </mxCell>
        <mxCell id="BMqC1tdzXRaq2WfvHlOq-47" style="edgeStyle=none;shape=connector;rounded=0;orthogonalLoop=1;jettySize=auto;html=1;exitX=1;exitY=0.3333333333333333;exitDx=0;exitDy=0;exitPerimeter=0;entryX=0;entryY=0.5;entryDx=0;entryDy=0;strokeColor=default;align=center;verticalAlign=middle;fontFamily=Helvetica;fontSize=11;fontColor=default;labelBackgroundColor=default;endArrow=classic;" edge="1" parent="1" source="BMqC1tdzXRaq2WfvHlOq-6" target="BMqC1tdzXRaq2WfvHlOq-16">
          <mxGeometry relative="1" as="geometry" />
        </mxCell>
        <mxCell id="BMqC1tdzXRaq2WfvHlOq-56" style="edgeStyle=none;shape=connector;rounded=0;orthogonalLoop=1;jettySize=auto;html=1;exitX=1;exitY=0.3333333333333333;exitDx=0;exitDy=0;exitPerimeter=0;entryX=0;entryY=1;entryDx=0;entryDy=0;strokeColor=default;align=center;verticalAlign=middle;fontFamily=Helvetica;fontSize=11;fontColor=default;labelBackgroundColor=default;endArrow=classic;" edge="1" parent="1" source="BMqC1tdzXRaq2WfvHlOq-6" target="LSAs5oSdMveP9yP4Xt4q-14">
          <mxGeometry relative="1" as="geometry" />
        </mxCell>
        <mxCell id="BMqC1tdzXRaq2WfvHlOq-6" value="Emergency Response Units" style="shape=umlActor;verticalLabelPosition=bottom;verticalAlign=top;html=1;outlineConnect=0;rounded=1;" vertex="1" parent="1">
          <mxGeometry x="330" y="1124" width="30" height="60" as="geometry" />
        </mxCell>
        <mxCell id="BMqC1tdzXRaq2WfvHlOq-66" style="edgeStyle=none;shape=connector;rounded=0;orthogonalLoop=1;jettySize=auto;html=1;exitX=0;exitY=0.3333333333333333;exitDx=0;exitDy=0;exitPerimeter=0;entryX=1;entryY=0.5;entryDx=0;entryDy=0;strokeColor=default;align=center;verticalAlign=middle;fontFamily=Helvetica;fontSize=11;fontColor=default;labelBackgroundColor=default;endArrow=classic;" edge="1" parent="1" source="BMqC1tdzXRaq2WfvHlOq-9" target="BMqC1tdzXRaq2WfvHlOq-12">
          <mxGeometry relative="1" as="geometry" />
        </mxCell>
        <mxCell id="BMqC1tdzXRaq2WfvHlOq-67" style="edgeStyle=none;shape=connector;rounded=0;orthogonalLoop=1;jettySize=auto;html=1;exitX=0;exitY=0.3333333333333333;exitDx=0;exitDy=0;exitPerimeter=0;entryX=1;entryY=0;entryDx=0;entryDy=0;strokeColor=default;align=center;verticalAlign=middle;fontFamily=Helvetica;fontSize=11;fontColor=default;labelBackgroundColor=default;endArrow=classic;" edge="1" parent="1" source="BMqC1tdzXRaq2WfvHlOq-9" target="BMqC1tdzXRaq2WfvHlOq-13">
          <mxGeometry relative="1" as="geometry" />
        </mxCell>
        <mxCell id="BMqC1tdzXRaq2WfvHlOq-69" style="edgeStyle=none;shape=connector;rounded=0;orthogonalLoop=1;jettySize=auto;html=1;exitX=0;exitY=0.3333333333333333;exitDx=0;exitDy=0;exitPerimeter=0;entryX=1;entryY=0.5;entryDx=0;entryDy=0;strokeColor=default;align=center;verticalAlign=middle;fontFamily=Helvetica;fontSize=11;fontColor=default;labelBackgroundColor=default;endArrow=classic;" edge="1" parent="1" source="BMqC1tdzXRaq2WfvHlOq-9" target="BMqC1tdzXRaq2WfvHlOq-14">
          <mxGeometry relative="1" as="geometry" />
        </mxCell>
        <mxCell id="BMqC1tdzXRaq2WfvHlOq-70" style="edgeStyle=none;shape=connector;rounded=0;orthogonalLoop=1;jettySize=auto;html=1;entryX=1;entryY=0.5;entryDx=0;entryDy=0;strokeColor=default;align=center;verticalAlign=middle;fontFamily=Helvetica;fontSize=11;fontColor=default;labelBackgroundColor=default;endArrow=classic;" edge="1" parent="1" target="BMqC1tdzXRaq2WfvHlOq-15">
          <mxGeometry relative="1" as="geometry">
            <mxPoint x="1280" y="944" as="sourcePoint" />
          </mxGeometry>
        </mxCell>
        <mxCell id="BMqC1tdzXRaq2WfvHlOq-71" style="edgeStyle=none;shape=connector;rounded=0;orthogonalLoop=1;jettySize=auto;html=1;exitX=0;exitY=0.3333333333333333;exitDx=0;exitDy=0;exitPerimeter=0;entryX=1;entryY=0;entryDx=0;entryDy=0;strokeColor=default;align=center;verticalAlign=middle;fontFamily=Helvetica;fontSize=11;fontColor=default;labelBackgroundColor=default;endArrow=classic;" edge="1" parent="1" source="BMqC1tdzXRaq2WfvHlOq-9" target="BMqC1tdzXRaq2WfvHlOq-19">
          <mxGeometry relative="1" as="geometry" />
        </mxCell>
        <mxCell id="BMqC1tdzXRaq2WfvHlOq-93" style="edgeStyle=none;shape=connector;rounded=0;orthogonalLoop=1;jettySize=auto;html=1;exitX=0;exitY=0.3333333333333333;exitDx=0;exitDy=0;exitPerimeter=0;strokeColor=default;align=center;verticalAlign=middle;fontFamily=Helvetica;fontSize=11;fontColor=default;labelBackgroundColor=default;endArrow=classic;entryX=1;entryY=0;entryDx=0;entryDy=0;" edge="1" parent="1" source="BMqC1tdzXRaq2WfvHlOq-9" target="BMqC1tdzXRaq2WfvHlOq-91">
          <mxGeometry relative="1" as="geometry">
            <mxPoint x="1100" y="1484" as="targetPoint" />
          </mxGeometry>
        </mxCell>
        <mxCell id="BMqC1tdzXRaq2WfvHlOq-102" style="edgeStyle=none;shape=connector;rounded=0;orthogonalLoop=1;jettySize=auto;html=1;exitX=0;exitY=0.3333333333333333;exitDx=0;exitDy=0;exitPerimeter=0;entryX=1;entryY=0;entryDx=0;entryDy=0;strokeColor=default;align=center;verticalAlign=middle;fontFamily=Helvetica;fontSize=11;fontColor=default;labelBackgroundColor=default;endArrow=classic;" edge="1" parent="1" source="BMqC1tdzXRaq2WfvHlOq-9" target="BMqC1tdzXRaq2WfvHlOq-96">
          <mxGeometry relative="1" as="geometry" />
        </mxCell>
        <mxCell id="BMqC1tdzXRaq2WfvHlOq-9" value="Central Command System" style="shape=umlActor;verticalLabelPosition=bottom;verticalAlign=top;html=1;outlineConnect=0;rounded=1;movable=1;resizable=1;rotatable=1;deletable=1;editable=1;locked=0;connectable=1;" vertex="1" parent="1">
          <mxGeometry x="1280" y="924" width="30" height="60" as="geometry" />
        </mxCell>
        <mxCell id="BMqC1tdzXRaq2WfvHlOq-12" value="Threat Detection" style="ellipse;whiteSpace=wrap;html=1;rounded=1;" vertex="1" parent="1">
          <mxGeometry x="660" y="960" width="130" height="104" as="geometry" />
        </mxCell>
        <mxCell id="BMqC1tdzXRaq2WfvHlOq-13" value="Threat Classification &amp;amp; Risk Assessment" style="ellipse;whiteSpace=wrap;html=1;rounded=1;" vertex="1" parent="1">
          <mxGeometry x="830" y="1240" width="130" height="104" as="geometry" />
        </mxCell>
        <mxCell id="BMqC1tdzXRaq2WfvHlOq-14" value="Alert &amp;amp; Notification" style="ellipse;whiteSpace=wrap;html=1;rounded=1;" vertex="1" parent="1">
          <mxGeometry x="660" y="584" width="130" height="104" as="geometry" />
        </mxCell>
        <mxCell id="BMqC1tdzXRaq2WfvHlOq-15" value="Decision Support &amp;amp; Quick Response" style="ellipse;whiteSpace=wrap;html=1;rounded=1;" vertex="1" parent="1">
          <mxGeometry x="660" y="464" width="130" height="104" as="geometry" />
        </mxCell>
        <mxCell id="BMqC1tdzXRaq2WfvHlOq-16" value="Countermeasures" style="ellipse;whiteSpace=wrap;html=1;rounded=1;" vertex="1" parent="1">
          <mxGeometry x="660" y="706" width="130" height="104" as="geometry" />
        </mxCell>
        <mxCell id="BMqC1tdzXRaq2WfvHlOq-17" value="Communication &amp;amp; Coordination" style="ellipse;whiteSpace=wrap;html=1;rounded=1;" vertex="1" parent="1">
          <mxGeometry x="830" y="1600" width="130" height="104" as="geometry" />
        </mxCell>
        <mxCell id="BMqC1tdzXRaq2WfvHlOq-19" value="System Monitoring &amp;amp; Maintenance" style="ellipse;whiteSpace=wrap;html=1;rounded=1;" vertex="1" parent="1">
          <mxGeometry x="830" y="1720" width="130" height="104" as="geometry" />
        </mxCell>
        <mxCell id="BMqC1tdzXRaq2WfvHlOq-20" value="Training &amp;amp; Simulation" style="ellipse;whiteSpace=wrap;html=1;rounded=1;" vertex="1" parent="1">
          <mxGeometry x="660" y="1084" width="130" height="104" as="geometry" />
        </mxCell>
        <mxCell id="BMqC1tdzXRaq2WfvHlOq-26" style="rounded=0;orthogonalLoop=1;jettySize=auto;html=1;exitX=1;exitY=0.3333333333333333;exitDx=0;exitDy=0;exitPerimeter=0;entryX=0;entryY=0;entryDx=0;entryDy=0;" edge="1" parent="1" source="LSAs5oSdMveP9yP4Xt4q-1" target="BMqC1tdzXRaq2WfvHlOq-12">
          <mxGeometry relative="1" as="geometry" />
        </mxCell>
        <mxCell id="BMqC1tdzXRaq2WfvHlOq-29" style="edgeStyle=none;shape=connector;rounded=0;orthogonalLoop=1;jettySize=auto;html=1;exitX=1;exitY=0.3333333333333333;exitDx=0;exitDy=0;exitPerimeter=0;entryX=0;entryY=0;entryDx=0;entryDy=0;strokeColor=default;align=center;verticalAlign=middle;fontFamily=Helvetica;fontSize=11;fontColor=default;labelBackgroundColor=default;endArrow=classic;" edge="1" parent="1" source="LSAs5oSdMveP9yP4Xt4q-1" target="BMqC1tdzXRaq2WfvHlOq-16">
          <mxGeometry relative="1" as="geometry" />
        </mxCell>
        <mxCell id="BMqC1tdzXRaq2WfvHlOq-45" style="edgeStyle=none;shape=connector;rounded=0;orthogonalLoop=1;jettySize=auto;html=1;exitX=1;exitY=0.3333333333333333;exitDx=0;exitDy=0;exitPerimeter=0;entryX=0;entryY=0.577;entryDx=0;entryDy=0;entryPerimeter=0;strokeColor=default;align=center;verticalAlign=middle;fontFamily=Helvetica;fontSize=11;fontColor=default;labelBackgroundColor=default;endArrow=classic;" edge="1" parent="1" source="BMqC1tdzXRaq2WfvHlOq-5" target="BMqC1tdzXRaq2WfvHlOq-13">
          <mxGeometry relative="1" as="geometry" />
        </mxCell>
        <mxCell id="BMqC1tdzXRaq2WfvHlOq-49" style="edgeStyle=none;shape=connector;rounded=0;orthogonalLoop=1;jettySize=auto;html=1;exitX=0;exitY=0.3333333333333333;exitDx=0;exitDy=0;exitPerimeter=0;entryX=1;entryY=0;entryDx=0;entryDy=0;strokeColor=default;align=center;verticalAlign=middle;fontFamily=Helvetica;fontSize=11;fontColor=default;labelBackgroundColor=default;endArrow=classic;" edge="1" parent="1" source="m6IIViM59i8U2YxwG6Qa-5" target="BMqC1tdzXRaq2WfvHlOq-13">
          <mxGeometry relative="1" as="geometry" />
        </mxCell>
        <mxCell id="BMqC1tdzXRaq2WfvHlOq-61" style="edgeStyle=none;shape=connector;rounded=0;orthogonalLoop=1;jettySize=auto;html=1;exitX=0;exitY=0.3333333333333333;exitDx=0;exitDy=0;exitPerimeter=0;entryX=1;entryY=0.5;entryDx=0;entryDy=0;strokeColor=default;align=center;verticalAlign=middle;fontFamily=Helvetica;fontSize=11;fontColor=default;labelBackgroundColor=default;endArrow=classic;" edge="1" parent="1" source="LSAs5oSdMveP9yP4Xt4q-10" target="BMqC1tdzXRaq2WfvHlOq-15">
          <mxGeometry relative="1" as="geometry" />
        </mxCell>
        <mxCell id="BMqC1tdzXRaq2WfvHlOq-78" value="Log Out" style="ellipse;whiteSpace=wrap;html=1;rounded=1;" vertex="1" parent="1">
          <mxGeometry x="660" y="344" width="130" height="104" as="geometry" />
        </mxCell>
        <mxCell id="BMqC1tdzXRaq2WfvHlOq-80" style="edgeStyle=none;shape=connector;rounded=0;orthogonalLoop=1;jettySize=auto;html=1;exitX=0;exitY=0.3333333333333333;exitDx=0;exitDy=0;exitPerimeter=0;entryX=1;entryY=1;entryDx=0;entryDy=0;strokeColor=default;align=center;verticalAlign=middle;fontFamily=Helvetica;fontSize=11;fontColor=default;labelBackgroundColor=default;endArrow=classic;" edge="1" parent="1" source="BMqC1tdzXRaq2WfvHlOq-79" target="LSAs5oSdMveP9yP4Xt4q-14">
          <mxGeometry relative="1" as="geometry" />
        </mxCell>
        <mxCell id="BMqC1tdzXRaq2WfvHlOq-87" style="edgeStyle=none;shape=connector;rounded=0;orthogonalLoop=1;jettySize=auto;html=1;exitX=0;exitY=0.3333333333333333;exitDx=0;exitDy=0;exitPerimeter=0;entryX=1;entryY=0.5;entryDx=0;entryDy=0;strokeColor=default;align=center;verticalAlign=middle;fontFamily=Helvetica;fontSize=11;fontColor=default;labelBackgroundColor=default;endArrow=classic;" edge="1" parent="1" source="BMqC1tdzXRaq2WfvHlOq-79" target="BMqC1tdzXRaq2WfvHlOq-78">
          <mxGeometry relative="1" as="geometry" />
        </mxCell>
        <mxCell id="BMqC1tdzXRaq2WfvHlOq-89" style="edgeStyle=none;shape=connector;rounded=0;orthogonalLoop=1;jettySize=auto;html=1;exitX=0;exitY=0.3333333333333333;exitDx=0;exitDy=0;exitPerimeter=0;entryX=1;entryY=0;entryDx=0;entryDy=0;strokeColor=default;align=center;verticalAlign=middle;fontFamily=Helvetica;fontSize=11;fontColor=default;labelBackgroundColor=default;endArrow=classic;" edge="1" parent="1" source="BMqC1tdzXRaq2WfvHlOq-79" target="BMqC1tdzXRaq2WfvHlOq-88">
          <mxGeometry relative="1" as="geometry" />
        </mxCell>
        <mxCell id="BMqC1tdzXRaq2WfvHlOq-92" style="edgeStyle=none;shape=connector;rounded=0;orthogonalLoop=1;jettySize=auto;html=1;exitX=0;exitY=0.3333333333333333;exitDx=0;exitDy=0;exitPerimeter=0;entryX=1;entryY=0;entryDx=0;entryDy=0;strokeColor=default;align=center;verticalAlign=middle;fontFamily=Helvetica;fontSize=11;fontColor=default;labelBackgroundColor=default;endArrow=classic;" edge="1" parent="1" source="BMqC1tdzXRaq2WfvHlOq-79" target="BMqC1tdzXRaq2WfvHlOq-91">
          <mxGeometry relative="1" as="geometry" />
        </mxCell>
        <mxCell id="BMqC1tdzXRaq2WfvHlOq-94" style="edgeStyle=none;shape=connector;rounded=0;orthogonalLoop=1;jettySize=auto;html=1;exitX=0;exitY=0.3333333333333333;exitDx=0;exitDy=0;exitPerimeter=0;entryX=1;entryY=0;entryDx=0;entryDy=0;strokeColor=default;align=center;verticalAlign=middle;fontFamily=Helvetica;fontSize=11;fontColor=default;labelBackgroundColor=default;endArrow=classic;" edge="1" parent="1" source="BMqC1tdzXRaq2WfvHlOq-79" target="BMqC1tdzXRaq2WfvHlOq-19">
          <mxGeometry relative="1" as="geometry" />
        </mxCell>
        <mxCell id="BMqC1tdzXRaq2WfvHlOq-106" style="edgeStyle=none;shape=connector;rounded=0;orthogonalLoop=1;jettySize=auto;html=1;exitX=0;exitY=0.3333333333333333;exitDx=0;exitDy=0;exitPerimeter=0;entryX=0.792;entryY=0.135;entryDx=0;entryDy=0;strokeColor=default;align=center;verticalAlign=middle;fontFamily=Helvetica;fontSize=11;fontColor=default;labelBackgroundColor=default;endArrow=classic;entryPerimeter=0;" edge="1" parent="1" source="BMqC1tdzXRaq2WfvHlOq-79" target="BMqC1tdzXRaq2WfvHlOq-103">
          <mxGeometry relative="1" as="geometry" />
        </mxCell>
        <mxCell id="BMqC1tdzXRaq2WfvHlOq-79" value="System Administrator" style="shape=umlActor;verticalLabelPosition=bottom;verticalAlign=top;html=1;outlineConnect=0;rounded=1;movable=1;resizable=1;rotatable=1;deletable=1;editable=1;locked=0;connectable=1;" vertex="1" parent="1">
          <mxGeometry x="1280" y="1124" width="30" height="60" as="geometry" />
        </mxCell>
        <mxCell id="BMqC1tdzXRaq2WfvHlOq-88" value="User Account Management" style="ellipse;whiteSpace=wrap;html=1;rounded=1;" vertex="1" parent="1">
          <mxGeometry x="830" y="1964" width="130" height="104" as="geometry" />
        </mxCell>
        <mxCell id="BMqC1tdzXRaq2WfvHlOq-91" value="Session Management" style="ellipse;whiteSpace=wrap;html=1;rounded=1;" vertex="1" parent="1">
          <mxGeometry x="830" y="1844" width="130" height="104" as="geometry" />
        </mxCell>
        <mxCell id="BMqC1tdzXRaq2WfvHlOq-96" value="Secure Data Access" style="ellipse;whiteSpace=wrap;html=1;rounded=1;" vertex="1" parent="1">
          <mxGeometry x="660" y="834" width="130" height="104" as="geometry" />
        </mxCell>
        <mxCell id="BMqC1tdzXRaq2WfvHlOq-103" value="Data Encryption" style="ellipse;whiteSpace=wrap;html=1;rounded=1;" vertex="1" parent="1">
          <mxGeometry x="830" y="1480" width="130" height="104" as="geometry" />
        </mxCell>
        <mxCell id="BMqC1tdzXRaq2WfvHlOq-104" style="edgeStyle=none;shape=connector;rounded=0;orthogonalLoop=1;jettySize=auto;html=1;exitX=0;exitY=0.3333333333333333;exitDx=0;exitDy=0;exitPerimeter=0;entryX=0.792;entryY=0.135;entryDx=0;entryDy=0;entryPerimeter=0;strokeColor=default;align=center;verticalAlign=middle;fontFamily=Helvetica;fontSize=11;fontColor=default;labelBackgroundColor=default;endArrow=classic;" edge="1" parent="1" source="BMqC1tdzXRaq2WfvHlOq-9" target="BMqC1tdzXRaq2WfvHlOq-103">
          <mxGeometry relative="1" as="geometry" />
        </mxCell>
        <mxCell id="BMqC1tdzXRaq2WfvHlOq-18" value="Post-Threat Analysis &amp;amp; Reporting" style="ellipse;whiteSpace=wrap;html=1;rounded=1;" vertex="1" parent="1">
          <mxGeometry x="830" y="1360" width="130" height="104" as="geometry" />
        </mxCell>
      </root>
    </mxGraphModel>
  </diagram>
</mxfile>
